<svg xmlns="http://www.w3.org/2000/svg" viewBox="0 0 120 120" width="120" height="120">
  <defs>
    <linearGradient id="mkJade" x1="20" y1="16" x2="92" y2="104" gradientUnits="userSpaceOnUse">
      <stop offset="0" stop-color="#2aa583"/><stop offset="1" stop-color="#0e6b57"/>
    </linearGradient>
    <linearGradient id="mkGold" x1="44" y1="58" x2="60" y2="86" gradientUnits="userSpaceOnUse">
      <stop offset="0" stop-color="#e6c982"/><stop offset="1" stop-color="#b58a45"/>
    </linearGradient>
  </defs>
  <rect width="120" height="120" rx="27" fill="#101613"/>
  <g transform="translate(60,60) scale(0.80) translate(-60,-60)">
  <path fill="url(#mkJade)" fill-rule="evenodd" d="M 8,60 a48,48 0 1,0 96,0 a48,48 0 1,0 -96,0 Z M 28,55 a37,37 0 1,1 74,0 a37,37 0 1,1 -74,0 Z"/>
  <path fill="url(#mkGold)" d="M 62,60 C 56,55 49,54 43,56 C 42,64 42,74 43,82 C 49,80 56,81 62,86 Z"/>
  <path fill="#f4eede" d="M 62,60 C 68,55 75,54 81,56 C 82,64 82,74 81,82 C 75,80 68,81 62,86 Z"/>
  <line x1="62" y1="61" x2="62" y2="85" stroke="#101613" stroke-width="2.4" stroke-linecap="round"/>
  <path d="M 67,64 l 10,1.4 M 67,70 l 10,1.4 M 67,76 l 10,1.4" stroke="#101613" stroke-width="1.3" stroke-linecap="round" opacity="0.26"/>
  <path fill="url(#mkGold)" d="M 79.00,21.00 L 80.76,27.75 L 86.78,24.22 L 83.25,30.24 L 90.00,32.00 L 83.25,33.76 L 86.78,39.78 L 80.76,36.25 L 79.00,43.00 L 77.24,36.25 L 71.22,39.78 L 74.75,33.76 L 68.00,32.00 L 74.75,30.24 L 71.22,24.22 L 77.24,27.75 Z"/>
  </g>
</svg>
